<svg width="435" height="441" viewBox="0 0 435 441" fill="none" xmlns="http://www.w3.org/2000/svg">
<path opacity="0.08" d="M147.84 46.7892C168.037 40.1278 189.173 36.9062 210.398 37.254C237.282 36.9203 312.465 36.0621 352.767 87.314C393.07 138.566 381.896 220.807 344.071 273.251C300.729 333.276 229.988 343.383 191.275 339.998C176.734 338.758 153.544 336.518 135.777 319.068C131.476 314.873 124.603 306.863 112.399 261.332C99.4015 214.085 93.0896 189.818 102.581 170.747C104.311 167.219 114.41 146.909 135.309 143.048C143.208 141.658 151.33 142.542 158.763 145.599C166.196 148.656 172.646 153.766 177.389 160.354C186.74 174.085 177.857 183.143 184.168 208.793C187.208 220.951 193.052 244.789 211.333 252.607C233.542 262.143 258.649 241.404 261.268 239.21C274.306 227.362 282.791 211.174 285.206 193.537C288.349 176.845 286.458 159.575 279.783 144.001C266.972 114.919 240.508 103.143 233.028 99.7575C169.487 71.4855 97.4378 124.883 88.8348 131.605C70.5155 145.148 54.6872 161.886 42.0797 181.045C33.072 195.724 26.5447 211.84 22.7699 228.722C17.6591 254.295 19.0921 280.779 26.9311 305.623C32.9398 325.056 42.0895 343.329 54.0023 359.688C76.1469 390.104 106.28 413.509 140.92 427.198C166.436 437.17 193.654 441.823 220.965 440.881C256.405 440.309 282.167 431.346 304.049 423.67C332.054 414.692 358.464 401.186 382.27 383.669C400.135 370.353 416.228 354.727 430.147 337.185C447.055 315.176 460.494 290.614 469.982 264.384C476.837 245.474 481.726 225.883 484.57 205.932C488.871 178.566 493.921 147.529 485.271 109.15C480.797 86.0844 471.709 64.2068 458.574 44.8822C445.004 25.6776 427.685 9.54285 407.705 -2.50797C374.041 -24.1053 343.089 -29.4927 316.205 -34.2603C282.754 -39.7322 248.722 -40.4702 215.074 -36.4534C186.354 -34.7013 157.951 -29.386 130.494 -20.6249C104.774 -12.773 80.4169 -0.869144 58.3038 14.6555C36.4691 30.2933 -7.2469 67.3854 1.02875 87.171C5.04969 96.7062 20.1516 98.8994 26.3233 99.7575C68.6834 105.479 89.7699 66.2888 147.84 46.7892Z" fill="white"/>
</svg>
