<svg xmlns="http://www.w3.org/2000/svg" viewBox="0 0 601.74 396.15"><defs><style>.cls-1{fill:#f2f2f2;}.cls-2{fill:#179ba1;}.cls-3{fill:#fff;}.cls-4{fill:#2ec5ce;}.cls-5{fill:#e6e6e6;}.cls-6{fill:#e4e4e4;}</style></defs><g id="Laag_2" data-name="Laag 2"><g id="Laag_1-2" data-name="Laag 1"><g id="Laag_2-2" data-name="Laag 2"><g id="a9bf0661-4ff9-474e-842c-2ecc0dde3355"><rect id="b0371f3f-df42-4d60-b6c1-6000de199dd5" class="cls-1" x="0.2" y="0.27" width="334.98" height="175.89"/><rect id="a5ec3362-5fc6-49dd-bbc1-e584c03fc30b" class="cls-2" width="334.98" height="20.39"/><rect id="edb19af0-e7ad-43aa-9651-c68038fb40c2" class="cls-3" x="7.78" y="28.66" width="321.14" height="138.23"/><circle id="fcfbd1c3-546b-4aa9-92d2-19035f23e7a3" class="cls-3" cx="31.74" cy="10.14" r="3.37"/><circle id="fcf1e260-d16a-4b37-91b5-eb72ad8ee2c7" class="cls-3" cx="44.55" cy="10.14" r="3.37"/><circle id="ae552ed4-f0ed-4b8a-a24a-450e5f71adc4" class="cls-3" cx="18.91" cy="10.14" r="3.37"/><circle class="cls-4" cx="62.49" cy="127.21" r="5.93"/><circle class="cls-4" cx="114.84" cy="111.69" r="5.93"/><circle class="cls-4" cx="167.19" cy="127.21" r="5.93"/><circle class="cls-4" cx="219.54" cy="48.92" r="5.93"/><circle class="cls-4" cx="271.88" cy="48.19" r="5.93"/><polygon class="cls-4" points="167.31 128.54 114.84 112.23 63.08 128 61.9 126.42 114.84 109.77 167.06 125.88 218.96 48.09 219.17 48.01 271.51 47.91 272.25 49.75 220.11 49.76 167.31 128.54"/><rect id="a979eff9-2035-45aa-8fad-490bbaa22894" class="cls-1" x="76.05" y="230.63" width="315.24" height="165.52"/><rect id="b5344e31-85e8-4079-8f4b-e609523654c2" class="cls-2" x="75.86" y="230.37" width="315.24" height="19.19"/><rect id="a6983896-3ceb-4bf9-866b-7e40cad74d1b" class="cls-3" x="82.7" y="256.23" width="302.69" height="131.49"/><circle id="f96e66fe-9216-4da2-bba4-b63d176988a9" class="cls-3" cx="105.73" cy="239.92" r="3.17"/><circle id="e3ffbb79-e13a-4bd7-b23c-45510780cb2f" class="cls-3" cx="117.78" cy="239.92" r="3.17"/><circle id="ec6ea03b-7290-43d8-8b25-59bf30f1f0ee" class="cls-3" cx="93.66" cy="239.93" r="3.17"/><rect id="e9e5cf6b-8f55-43bf-8281-302b4fb1e9d5" class="cls-5" x="227.81" y="72.54" width="373.93" height="196.34"/><rect id="e4e8a65e-8422-4898-a810-30d755c7dafc" class="cls-2" x="227.58" y="72.24" width="373.93" height="22.76"/><rect id="b6acd298-89f8-46a0-ab3e-c2f0533bc288" class="cls-3" x="236.2" y="101.99" width="356.54" height="155.93"/><circle id="a2e6f9e4-3ad4-420f-8fe3-197d901d1e70" class="cls-3" cx="263.01" cy="83.56" r="3.77"/><circle id="b303a717-eadc-4672-a419-54a1feb6afd8" class="cls-3" cx="277.3" cy="83.56" r="3.77"/><circle id="b1ff2c46-8045-41fc-afe2-76f8fb520d89" class="cls-3" cx="248.68" cy="83.56" r="3.77"/><path class="cls-4" d="M417,136.16a3.08,3.08,0,0,0,0,6.11H543.27a3.08,3.08,0,0,0,0-6.11Z"/><path class="cls-4" d="M417,208.25a3.09,3.09,0,0,0,0,6.12H543.27a3.09,3.09,0,0,0,0-6.12Z"/><path class="cls-4" d="M417,154.5a3.08,3.08,0,0,0,0,6.11h54.33a3.08,3.08,0,0,0,0-6.11Z"/><path class="cls-4" d="M417,172a3.08,3.08,0,0,0,0,6.11H543.27a3.08,3.08,0,0,0,0-6.11Z"/><path class="cls-4" d="M417,190.32a3.08,3.08,0,0,0,0,6.11h54.33a3.08,3.08,0,0,0,0-6.11Z"/><path class="cls-4" d="M343.43,211a2.91,2.91,0,0,0,0-5.82h-59a2.91,2.91,0,0,0,0,5.82Z"/><path class="cls-4" d="M343.43,193.87a2.91,2.91,0,0,0,0-5.82h-59a2.91,2.91,0,0,0,0,5.82Z"/><path class="cls-4" d="M313.92,139.5a18.32,18.32,0,1,1-18.31,18.33h0A18.34,18.34,0,0,1,313.92,139.5Z"/><circle class="cls-4" cx="165.81" cy="294.31" r="7.17"/><path class="cls-6" d="M280.94,288.73a4.86,4.86,0,1,1,0,9.72H205.58a4.86,4.86,0,1,1,0-9.72H281m0-1.19H205.58a6.05,6.05,0,1,0,0,12.1H281a6,6,0,1,0,0-12.1Z"/><path class="cls-4" d="M251.2,299.64H194.47a6,6,0,1,1,0-12.1h56.74a6.05,6.05,0,1,1,0,12.1Z"/><circle class="cls-4" cx="165.81" cy="324.06" r="7.17"/><path class="cls-6" d="M280.94,318.49a4.86,4.86,0,0,1,0,9.72H205.58a4.86,4.86,0,0,1,0-9.72H281m0-1.19H205.58a6.05,6.05,0,0,0,0,12.1H281a6.05,6.05,0,1,0,0-12.1Z"/><path class="cls-4" d="M272.63,329.4H194.47a6,6,0,0,1,0-12.1h78.16a6,6,0,1,1,0,12.1Z"/><circle class="cls-4" cx="165.81" cy="353.82" r="7.17"/><path class="cls-6" d="M280.94,348.24a4.86,4.86,0,0,1,0,9.72H205.58a4.86,4.86,0,0,1,0-9.72h75.36m0-1.19H205.58a6.05,6.05,0,0,0,0,12.1H281a6,6,0,0,0,0-12.1Z"/><path class="cls-4" d="M281.21,359.15H194.47a6,6,0,0,1,0-12.1h86.74a6.05,6.05,0,0,1,0,12.1Z"/></g></g></g></g></svg>