<svg xmlns="http://www.w3.org/2000/svg" viewBox="0 0 645 413.28"><defs><style>.cls-1{fill:#e6e6e6;}.cls-2{fill:#fff;}.cls-3{fill:#2ec5ce;}.cls-4{fill:#179ba1;}</style></defs><g id="Laag_2" data-name="Laag 2"><g id="a80234ba-f3f6-42a2-9225-8d803f7486aa"><rect class="cls-1" x="0.28" y="0.37" width="644.72" height="412.91"/><rect class="cls-2" x="18.71" y="52.15" width="607.85" height="336.69"/><rect class="cls-3" width="644.72" height="27.39"/><circle class="cls-2" cx="20.35" cy="14" r="5.08"/><circle class="cls-2" cx="39.62" cy="14" r="5.08"/><circle class="cls-2" cx="58.89" cy="14" r="5.08"/><rect class="cls-1" x="93.5" y="79.85" width="118.89" height="128.98"/><rect class="cls-1" x="263.19" y="79.85" width="118.89" height="128.98"/><rect class="cls-1" x="432.88" y="79.85" width="118.89" height="128.98"/><rect class="cls-1" x="93.5" y="232.18" width="118.89" height="128.98"/><rect class="cls-1" x="263.19" y="232.18" width="118.89" height="128.98"/><rect class="cls-1" x="432.88" y="232.18" width="118.89" height="128.98"/><path class="cls-2" d="M291.93,265.33l21.72-8.59,2.53,42.94s4.54,13.13,3,18.18c0,0,1,8.59-1.52,9.09s-9.6,1.52-10.1,1-.51-2-.51-2-5.05,3.54-5.55,7.58c0,0-21.22,6.57-21.73.51s10.61-11.12,10.61-11.12L299,309.78Z"/><path class="cls-2" d="M337.9,265.33l21.72-8.59,2.53,42.94s4.54,13.13,3,18.18c0,0,1,8.59-1.52,9.09s-9.6,1.52-10.1,1-.51-2-.51-2-5.05,3.54-5.55,7.58c0,0-21.22,6.57-21.73.51s10.61-11.12,10.61-11.12L345,309.78Z"/><path class="cls-4" d="M340,99.51s-4.62,12.92.74,18.75l-4.47,15.35s15.87,47.63,11.34,54.28c0,0-16.94,8.46-50.8-3l13.76-53.36-2-22.53,2.72-10.58,6.05-.61s-3.63,13.61,3,15.73,13.15-15.39,13.15-15.39Z"/><path class="cls-2" d="M126.42,182.94l5.84,2.39,27.86-36.61,8.75,43,5.84-1.06c3.74-37.06,6.8-74.85,3-92.73L156.14,97l-9.82,31.31-4.78,21.22Z"/><path class="cls-2" d="M480.68,97.61s-8,11.08-7.58,15.55,5.44,77.32,5.44,77.32l11.85.58-3.49-52.45,2.91-14.19L497,190.48l14.57.39-13-85.68L496,97.61Z"/><path class="cls-4" d="M525.7,276c-2.11-2.54-5.75-3.91-9.24-4.65.1-.32-10.62-2.54-10.8-2.08l-4-3.22-12.42,6.45-7-4.75L479,268.92c.13-.57-10.07,1.19-10.07,1.19-1.94.07-4.43.19-7.21.41-9.75.75-10.5,26-10.5,26a39.76,39.76,0,0,1,14.11-3l2.64,30.2c13.55-1.16,27.76.19,42.49,3.5l6.91-23.74,16.09-6.25S530.7,282,525.7,276Z"/><path class="cls-2" d="M180.44,261.64c-1.74-2.09-4.74-3.22-7.61-3.83.08-.27-8.75-2.09-8.9-1.71l-3.33-2.66-10.23,5.31-5.75-3.91-2.67.95c.11-.47-8.29,1-8.29,1-1.6.06-3.65.16-6,.34-8,.62-8.65,21.42-8.65,21.42a33,33,0,0,1,11.63-2.44L132.86,337c11.17-1,22.88.15,35,2.88l5.69-55.59,13.26-5.15S184.56,266.58,180.44,261.64Z"/></g></g></svg>