<svg width="32" height="32" viewBox="0 0 32 32" fill="none" xmlns="http://www.w3.org/2000/svg">
<path d="M6.66683 1.3335H2.66683C2.31321 1.3335 1.97407 1.47397 1.72402 1.72402C1.47397 1.97407 1.3335 2.31321 1.3335 2.66683V29.3335C1.3335 29.6871 1.47397 30.0263 1.72402 30.2763C1.97407 30.5264 2.31321 30.6668 2.66683 30.6668H6.66683V1.3335Z" fill="#75E3EA"/>
<path d="M9.3335 30.6668H22.6668V1.3335H9.3335V30.6668ZM16.0002 25.3335C15.6465 25.3335 15.3074 25.193 15.0574 24.943C14.8073 24.6929 14.6668 24.3538 14.6668 24.0002C14.6668 23.6465 14.8073 23.3074 15.0574 23.0574C15.3074 22.8073 15.6465 22.6668 16.0002 22.6668C16.3538 22.6668 16.6929 22.8073 16.943 23.0574C17.193 23.3074 17.3335 23.6465 17.3335 24.0002C17.3335 24.3538 17.193 24.6929 16.943 24.943C16.6929 25.193 16.3538 25.3335 16.0002 25.3335ZM16.0002 6.66683C16.3538 6.66683 16.6929 6.8073 16.943 7.05735C17.193 7.3074 17.3335 7.64654 17.3335 8.00016C17.3335 8.35378 17.193 8.69292 16.943 8.94297C16.6929 9.19302 16.3538 9.3335 16.0002 9.3335C15.6465 9.3335 15.3074 9.19302 15.0574 8.94297C14.8073 8.69292 14.6668 8.35378 14.6668 8.00016C14.6668 7.64654 14.8073 7.3074 15.0574 7.05735C15.3074 6.8073 15.6465 6.66683 16.0002 6.66683ZM16.0002 14.6668C16.3538 14.6668 16.6929 14.8073 16.943 15.0574C17.193 15.3074 17.3335 15.6465 17.3335 16.0002C17.3335 16.3538 17.193 16.6929 16.943 16.943C16.6929 17.193 16.3538 17.3335 16.0002 17.3335C15.6465 17.3335 15.3074 17.193 15.0574 16.943C14.8073 16.6929 14.6668 16.3538 14.6668 16.0002C14.6668 15.6465 14.8073 15.3074 15.0574 15.0574C15.3074 14.8073 15.6465 14.6668 16.0002 14.6668Z" fill="#2EC5CE"/>
<path d="M29.3335 1.3335H25.3335V30.6668H29.3335C29.6871 30.6668 30.0263 30.5264 30.2763 30.2763C30.5264 30.0263 30.6668 29.6871 30.6668 29.3335V2.66683C30.6668 2.31321 30.5264 1.97407 30.2763 1.72402C30.0263 1.47397 29.6871 1.3335 29.3335 1.3335Z" fill="#2EC5CE"/>
</svg>
