<svg xmlns="http://www.w3.org/2000/svg" viewBox="0 0 707.38 319.11"><defs><style>.cls-1{fill:#e6e6e6;}.cls-2{fill:#fff;}.cls-3{fill:#179ba1;}.cls-4{fill:#e4e4e4;}.cls-5{fill:#2ec5ce;}.cls-6{fill:#3f3d56;}</style></defs><g id="Laag_2" data-name="Laag 2"><g id="aeb423dd-03ff-4648-8e09-4c1290dce31f"><rect id="eeb7425a-d208-4c0d-b95e-02be1fa43e7d" class="cls-1" x="0.27" y="17.43" width="635.76" height="301.68"/><rect id="ac098a7d-41e7-4a0b-9ebb-e2b896279a43" class="cls-2" x="18.45" y="43.3" width="599.4" height="251.7"/><rect id="f3d044d2-f865-40f6-878a-97b0cdf0b076" class="cls-3" width="635.76" height="27.01"/><circle id="a41597d3-4560-43a6-897a-86e327d3ab8c" class="cls-2" cx="20.07" cy="12.49" r="5.01"/><circle id="a8db4b27-72ff-467a-b7ca-497e0ce2cc93" class="cls-2" cx="39.07" cy="12.49" r="5.01"/><circle id="ba9869b1-9707-4207-be3c-61cfbe485fac" class="cls-2" cx="58.07" cy="12.49" r="5.01"/><path class="cls-4" d="M553.23,228.71v-2h11.89l.07,2h-12Zm-11.89,0H529.45v-2h11.89Zm-23.78,0H505.67v-2h11.89Zm-23.78,0H481.89v-2h11.89Zm-23.78,0H458.12v-2H470Zm-23.77,0H434.34v-2h11.89Zm-23.78,0H410.56v-2h11.89Zm-23.78,0H386.78v-2h11.89Zm-23.78,0H364.32a3,3,0,0,1-1.8-.61l1.16-1.63a1.1,1.1,0,0,0,.65.24h10.56Zm195-11.38h-2V205.44h2Zm-208.23-1.28h-2V204.17h2Zm208.23-22.5h-2V181.67h2Zm-208.23-1.27h-2V180.39h2Zm208.23-22.5h-2V157.89h2ZM361.61,168.5h-2V156.61h2ZM569.84,146h-2V134.11h2Zm-208.23-1.28h-2V132.83h2Zm208.23-22.5h-2v-4c0-3.37-1.09-5.67-2.09-6.38l1.15-1.63c1.78,1.25,2.93,4.4,2.94,8Zm-208.23-1.28h-2v-2.75c0-4.86,2-8.56,4.68-8.61l0,2c-1.13,0-2.71,2.54-2.71,6.61Zm192.92-9.36H542.64v-2h11.89Zm-23.78,0H518.86v-2h11.89Zm-23.78,0H495.08v-2H507Zm-23.78,0H471.3v-2h11.89Zm-23.77,0H447.53v-2h11.89Zm-23.78,0H423.75v-2h11.89Zm-23.78,0H400v-2h11.89Zm-23.78,0H376.19v-2h11.89Z"/><rect id="bf5c6f7d-d465-4263-a791-6917df506e29" class="cls-1" x="77.79" y="116.62" width="122.56" height="7.04"/><rect id="f8f2b1f1-beba-472f-8554-cd71efd3f80f" class="cls-5" x="77.79" y="142.29" width="189.26" height="7.04"/><rect id="fb4599b7-18da-45bc-afb0-01dc7e2f7680" class="cls-1" x="77.79" y="166.46" width="154.24" height="7.04"/><rect id="fd7cd703-6235-43d3-ac2b-600a626f2c8b" class="cls-1" x="77.79" y="190.55" width="90.04" height="7.04"/><rect id="b510e3d8-1d90-415c-a9f7-f3077d64661d" class="cls-1" x="77.79" y="214.64" width="135.9" height="7.04"/><path id="f8ab5adf-0050-4313-a3fc-6665da3c3657" class="cls-2" d="M703.66,270H502.87c-2.05,0-3.72-3.41-3.72-7.61V160.48c0-4.2,1.67-7.6,3.72-7.61H703.66c2.05,0,3.72,3.41,3.72,7.61V262.39C707.38,266.59,705.71,270,703.66,270Z"/><g id="b9db5941-fd9d-4256-9412-6bd09c2c2e67"><circle id="b0c1df6c-9d28-49f1-a1f9-a4de637a1a39" class="cls-6" cx="567.44" cy="193.22" r="17.56"/><path id="f27b48c9-eb3a-4b88-89bc-f1c9b7ad6b59" class="cls-5" d="M622.5,247.33H536.37a1.66,1.66,0,0,1-.32,0l40.74-70.56a2.85,2.85,0,0,1,5,0l27.34,47.35,1.31,2.27Z"/><path id="fc8cace5-23bc-4b5f-a7ba-908e5d1307f5" class="cls-5" d="M670.46,247.33H596l14.44-21,1-1.51,18.81-27.33a3.81,3.81,0,0,1,5.35-.6,3.65,3.65,0,0,1,.3.27,2.78,2.78,0,0,1,.27.33Z"/></g><path id="b543a181-e408-4cd3-9028-b57a4db0547e" class="cls-1" d="M703.66,270H502.87c-2.05,0-3.72-3.41-3.72-7.61V160.48c0-4.2,1.67-7.6,3.72-7.61H703.66c2.05,0,3.72,3.41,3.72,7.61V262.39C707.38,266.59,705.71,270,703.66,270ZM502.87,155.91c-1.23,0-2.23,2.05-2.23,4.57V262.39c0,2.52,1,4.56,2.23,4.57H703.66c1.23,0,2.23-2,2.23-4.57V160.48c0-2.52-1-4.56-2.23-4.57Z"/><rect class="cls-4" x="464.15" y="161" width="2.54" height="18.94"/><polygon class="cls-4" points="475.81 169.41 473.95 171.14 465.43 161.97 456.9 171.14 455.05 169.41 465.43 158.25 475.81 169.41"/><path class="cls-4" d="M464.72,189.46A20.31,20.31,0,1,1,485,169.15h0A20.34,20.34,0,0,1,464.72,189.46Zm0-38.08a17.77,17.77,0,1,0,17.77,17.77h0A17.79,17.79,0,0,0,464.72,151.38Z"/></g></g></svg>