<svg xmlns="http://www.w3.org/2000/svg" viewBox="0 0 92.4 97"><defs><style>.cls-1{fill:#2ec5ce;}</style></defs><g id="Laag_2" data-name="Laag 2"><g id="Laag_1-2" data-name="Laag 1"><path d="M38.4,50,33.7,84.3a11.24,11.24,0,0,0,9.6,12.6,7.57,7.57,0,0,0,1.5.1H81.2A11.18,11.18,0,0,0,92.4,85.8a7.57,7.57,0,0,0-.1-1.5L87.6,50a2.66,2.66,0,0,0-2.4-2.2H40.9A2.49,2.49,0,0,0,38.4,50ZM83,52.8l4.4,32.1a6.2,6.2,0,0,1-5.3,7c-.3,0-.6.1-.8.1H44.9a6.23,6.23,0,0,1-6.2-6.2,2.77,2.77,0,0,1,.1-.9l4.4-32.1Z"/><path d="M40.8,0A16.94,16.94,0,0,0,23.9,16.9v4.4H10.8a2.49,2.49,0,0,0-2.5,2.2L.1,84.3A11.24,11.24,0,0,0,9.7,96.9a7.57,7.57,0,0,0,1.5.1H27.4a2.5,2.5,0,1,0,0-5H11.2A6.23,6.23,0,0,1,5,85.8a2.77,2.77,0,0,1,.1-.9l8-58.6H68.7l2,14.7a2.54,2.54,0,0,0,2.8,2.2,2.62,2.62,0,0,0,2.2-2.8L73.3,23.5a2.58,2.58,0,0,0-2.5-2.2H57.7V16.9A16.88,16.88,0,0,0,40.8,0ZM28.9,16.9a11.9,11.9,0,0,1,23.8,0h0v4.4H28.9Z"/><path class="cls-1" d="M63,78A12.93,12.93,0,0,0,75.9,65.1v-2a2.5,2.5,0,1,0-5,0v2a7.91,7.91,0,1,1-15.8.6V63.1a2.5,2.5,0,0,0-5,0v2A12.93,12.93,0,0,0,63,78Z"/><circle class="cls-1" cx="28.38" cy="37.45" r="3.1"/><circle class="cls-1" cx="53.22" cy="37.38" r="3.1"/></g></g></svg>