<svg xmlns="http://www.w3.org/2000/svg" viewBox="0 0 30 24.61"><defs><style>.cls-1{fill:#2ec5ce;}</style></defs><g id="Laag_2" data-name="Laag 2"><g id="Laag_1-2" data-name="Laag 1"><path d="M28,0H2A2,2,0,0,0,0,2V22.61a2,2,0,0,0,2,2H28a2,2,0,0,0,2-2V2A2,2,0,0,0,28,0ZM2,2H28V5H2ZM2,22.61V7H28V22.61Z"/><circle class="cls-1" cx="5" cy="3.5" r="0.86"/><path class="cls-1" d="M8.48,2.64a.86.86,0,1,0,.86.86A.87.87,0,0,0,8.48,2.64Z"/><path class="cls-1" d="M12,2.64a.86.86,0,1,0,.86.86A.86.86,0,0,0,12,2.64Z"/><path class="cls-1" d="M11.59,10.58a1,1,0,0,0-1.42,0L6.65,14.1a1,1,0,0,0,0,1.41L10.17,19a1,1,0,0,0,1.42,0,1,1,0,0,0,0-1.42L8.78,14.8,11.59,12A1,1,0,0,0,11.59,10.58Z"/><path class="cls-1" d="M19.83,10.58a1,1,0,0,0-1.42,0,1,1,0,0,0,0,1.41l2.81,2.81-2.81,2.81a1,1,0,0,0,0,1.42,1,1,0,0,0,1.42,0l3.52-3.52a1,1,0,0,0,.29-.71,1,1,0,0,0-.29-.7Z"/><path class="cls-1" d="M16.92,9.79a1,1,0,0,0-1.29.58l-3.12,8.15a1,1,0,0,0,.57,1.29.92.92,0,0,0,.36.07,1,1,0,0,0,.93-.64l3.12-8.15A1,1,0,0,0,16.92,9.79Z"/></g></g></svg>